<svg viewBox="0 0 512 512" xmlns="http://www.w3.org/2000/svg"><path d="m0 0h512v512h-512z"/><path d="m266.033 32.42-85.238 85.238v19.799l105.037-105.037zm41.528 3.728-123.038 123.038 168.291 168.29 123.038-123.036-168.292-168.29zm172.02 190.02-105.039 105.037h19.799l85.238-85.238v-19.799zm-239.903 13.627-9.9 9.9 32.527 32.528 9.9-9.9zm-22.627 22.627-23.528 23.527h47.055zm-41.528 41.527-27.255 27.256h65.054l27.256-27.256zm-45.255 45.256-27.254 27.254h65.054l27.254-27.254zm-27.254 45.254 23.527 23.527 23.527-23.527zm-21.729 3.728-9.898 9.899 32.527 32.527 9.898-9.898-32.527-32.527zm-38.767 18.899-7.504 22.512 37.388 37.388 22.512-7.504v-12.414l-39.984-39.982z" fill="#fff"/></svg>